# xmcd
#
# Track frame offsets:
#   150
#   14670
#   30350
#   48827
#   64637
#   79047
#   92382
#   111515
#   123652
#   137437
#   151847
#   167067
#   179482
#   192667
#   206215
#   217220
#   231392
#   247180
#   258220
#   270467
#
# Disc length: 3798 seconds
#
# Revision: 0
# Processed by: cddbd v1.5.1PL0 Copyright (c) Steve Scherf et al.
# Submitted via: uFREEDB ActiveX Control 1.5
#
DISCID=220ed414
DTITLE=Trio Parada Dura - Raizes Sertanejas Vol 2
DYEAR=1900
DGENRE=Country
TTITLE0=Soraia
TTITLE1=Alto Astral
TTITLE2=Luz da Minha Vida
TTITLE3=Bicho Bom é Mulher
TTITLE4=Não Vá Embora
TTITLE5=Cama Vazia
TTITLE6=A Vaquinha
TTITLE7=Cruz Pesada
TTITLE8=O Relógio da Matriz
TTITLE9=Homem Triste
TTITLE10=Nossa Casa
TTITLE11=Me Mata de Uma Vez
TTITLE12=Mãe Solteira
TTITLE13=Droga de Vida
TTITLE14=Casa de Esquina
TTITLE15=Barra Pesada
TTITLE16=Astro-Rei
TTITLE17=Dei um Cheiro na Vizinha
TTITLE18=Mineiro Não Perde Trem
TTITLE19=Mulher Pra Mais de Metro
EXTD=
EXTT0=
EXTT1=
EXTT2=
EXTT3=
EXTT4=
EXTT5=
EXTT6=
EXTT7=
EXTT8=
EXTT9=
EXTT10=
EXTT11=
EXTT12=
EXTT13=
EXTT14=
EXTT15=
EXTT16=
EXTT17=
EXTT18=
EXTT19=
PLAYORDER=
